<?xml version="1.0" standalone="no"?>
<!DOCTYPE svg PUBLIC "-//W3C//DTD SVG 20010904//EN"
 "http://www.w3.org/TR/2001/REC-SVG-20010904/DTD/svg10.dtd">
<svg version="1.0" xmlns="http://www.w3.org/2000/svg"
 width="221.000000pt" height="221.000000pt" viewBox="0 0 221.000000 221.000000"
 preserveAspectRatio="xMidYMid meet">
<metadata>
Created by potrace 1.11, written by Peter Selinger 2001-2013
</metadata>
<g transform="translate(0.000000,221.000000) scale(0.100000,-0.100000)"
fill="#000000" stroke="none">
<path d="M1235 1676 c-13 -10 -99 -229 -110 -280 -2 -10 -9 -24 -16 -32 -6 -8
-8 -14 -3 -14 4 0 3 -5 -4 -12 -7 -7 -12 -18 -12 -26 0 -8 -6 -28 -14 -45 -12
-26 -35 -92 -41 -117 -1 -3 -5 -14 -10 -25 -29 -70 -44 -115 -39 -115 4 0 0
-7 -7 -16 -7 -9 -14 -21 -15 -28 -1 -6 -8 -24 -15 -41 -6 -16 -14 -38 -16 -48
-1 -10 -10 -31 -18 -46 -8 -16 -11 -31 -8 -35 4 -3 1 -6 -5 -6 -7 0 -11 -3
-10 -7 3 -11 -33 -116 -45 -130 -5 -7 -6 -13 -3 -13 4 0 2 -9 -4 -19 -12 -23
-1 -33 42 -36 28 -3 68 26 68 48 0 7 137 389 157 437 3 8 7 20 9 25 2 11 54
149 87 234 11 29 20 60 20 67 0 8 3 14 7 14 4 0 7 6 7 13 1 6 19 61 42 121 44
117 48 135 29 137 -7 1 -23 3 -35 4 -13 1 -30 -3 -38 -9z"/>
<path d="M502 1302 c-128 -64 -244 -128 -258 -140 -18 -18 -22 -30 -18 -50 4
-15 9 -30 13 -34 13 -14 513 -259 518 -254 12 11 12 70 1 83 -7 8 -69 42 -138
76 -69 34 -126 65 -128 69 -2 4 -10 8 -18 8 -8 0 -42 14 -76 31 l-61 31 92 44
c50 24 94 44 97 43 4 0 10 3 13 8 3 4 54 32 114 61 59 29 108 59 109 67 5 51
2 70 -12 72 -8 1 -120 -51 -248 -115z"/>
<path d="M1399 1405 c-5 -75 -21 -61 204 -173 114 -57 207 -106 207 -110 -1
-9 -222 -118 -232 -114 -5 1 -8 -2 -8 -6 0 -4 -38 -26 -85 -47 -49 -23 -85
-46 -86 -55 0 -8 -2 -25 -3 -37 -6 -51 9 -47 268 82 141 70 259 131 262 136
12 20 14 62 3 75 -6 8 -59 38 -118 68 -58 29 -169 85 -246 125 -77 39 -145 71
-152 71 -7 0 -13 -7 -14 -15z"/>
</g>
</svg>
